<svg xmlns="http://www.w3.org/2000/svg" xmlns:xlink="http://www.w3.org/1999/xlink" width="500" zoomAndPan="magnify" viewBox="0 0 375 374.999991" height="500" preserveAspectRatio="xMidYMid meet" version="1.0"><defs><g/><clipPath id="5a657cabc8"><path d="M 44.238281 168 L 106.257812 168 L 106.257812 245 L 44.238281 245 Z M 44.238281 168 " clip-rule="nonzero"/></clipPath><clipPath id="094e56ada1"><path d="M 62.503906 187.226562 L 106.332031 187.226562 L 106.332031 221.785156 L 62.503906 221.785156 Z M 62.503906 187.226562 " clip-rule="nonzero"/></clipPath></defs><g clip-path="url(#5a657cabc8)"><path fill="#ebb14d" d="M 44.460938 206.03125 C 44.578125 203.574219 46.214844 201.453125 48.230469 200.171875 C 64.109375 190.015625 79.988281 179.851562 95.875 169.703125 C 97.710938 168.496094 100.042969 167.761719 102.210938 168.441406 C 104.859375 169.199219 106.238281 172.074219 106.136719 174.675781 C 106.160156 195.78125 106.152344 216.878906 106.171875 237.984375 C 106.203125 240.28125 105.238281 242.828125 103.066406 243.886719 C 100.8125 245.050781 98.09375 244.355469 96.0625 243.050781 C 80.167969 232.929688 64.277344 222.792969 48.386719 212.671875 C 46.113281 211.289062 44.257812 208.792969 44.460938 206.03125 Z M 44.460938 206.03125 " fill-opacity="1" fill-rule="nonzero"/></g><g clip-path="url(#094e56ada1)"><path fill="#fffcef" d="M 106.023438 203.230469 L 105.511719 201.789062 C 105.230469 201 104.351562 200.351562 103.558594 200.351562 L 101.75 200.351562 C 100.402344 196.585938 98.777344 192.035156 98.265625 190.96875 C 97.523438 189.296875 95.152344 188.550781 93.851562 188.179688 C 93.851562 188.179688 91.671875 187.34375 84.378906 187.34375 C 77.085938 187.34375 74.949219 188.179688 74.949219 188.179688 C 73.417969 188.691406 71.28125 189.433594 70.445312 191.015625 C 70.027344 191.804688 68.355469 196.449219 67.007812 200.351562 L 65.242188 200.351562 C 64.453125 200.351562 63.570312 201 63.292969 201.789062 L 62.78125 203.230469 C 62.503906 204.019531 62.921875 204.667969 63.710938 204.667969 L 65.519531 204.667969 C 65.289062 205.320312 65.148438 205.691406 65.148438 205.691406 C 65.011719 205.921875 64.917969 206.992188 64.917969 207.316406 L 64.917969 220.460938 C 64.917969 221.296875 65.613281 221.992188 66.449219 221.992188 L 72.023438 221.992188 C 72.859375 221.992188 73.554688 221.296875 73.554688 220.460938 L 73.554688 217.675781 L 95.246094 217.675781 L 95.246094 220.460938 C 95.246094 221.296875 95.941406 221.992188 96.777344 221.992188 L 102.398438 221.992188 C 103.234375 221.992188 103.933594 221.296875 103.933594 220.460938 L 103.933594 207.316406 C 103.933594 207.039062 103.839844 205.921875 103.699219 205.691406 C 103.699219 205.691406 103.558594 205.320312 103.328125 204.667969 L 105.09375 204.667969 C 105.835938 204.667969 106.253906 204.019531 106.023438 203.230469 Z M 73.554688 211.3125 L 71.699219 210.058594 C 68.261719 209.777344 67.84375 210.984375 67.101562 209.683594 L 67.101562 208.105469 C 67.101562 206.574219 67.984375 206.527344 68.957031 206.527344 C 69.886719 206.527344 71.746094 207.316406 73 207.875 C 74.347656 208.476562 75.320312 207.96875 75.832031 209.964844 C 75.785156 210.894531 75.273438 211.3125 73.554688 211.3125 Z M 70.304688 200.953125 C 71.464844 196.214844 73.417969 192.917969 73.695312 192.128906 C 73.882812 191.570312 73.417969 190.550781 84.425781 190.550781 C 95.433594 190.550781 94.828125 192.035156 94.875 192.082031 C 95.386719 193.152344 97.429688 196.632812 98.496094 200.953125 C 98.496094 200.953125 94.363281 201.511719 84.933594 201.511719 C 75.507812 201.511719 70.304688 200.953125 70.304688 200.953125 Z M 93.015625 209.964844 C 95.199219 207.269531 94.503906 208.476562 95.851562 207.875 C 97.058594 207.316406 98.960938 206.527344 99.890625 206.527344 C 100.867188 206.527344 101.75 206.574219 101.75 208.105469 L 101.75 209.683594 C 101.050781 210.9375 100.449219 209.824219 96.964844 210.148438 L 95.246094 211.265625 C 93.527344 211.3125 92.414062 210.660156 93.015625 209.964844 Z M 93.015625 209.964844 " fill-opacity="1" fill-rule="nonzero"/></g><g fill="#030009" fill-opacity="1"><g transform="translate(111.616653, 214.514641)"><g><path d="M 22.054688 0 L 22.054688 -6.210938 L 9.722656 -6.210938 L 9.722656 -14.371094 L 21.53125 -14.371094 L 21.53125 -20.582031 L 9.722656 -20.582031 L 9.722656 -28.835938 L 22.054688 -28.835938 L 22.054688 -35.046875 L 3.226562 -35.046875 L 3.226562 0 Z M 22.054688 0 "/></g></g></g><g fill="#030009" fill-opacity="1"><g transform="translate(136.276913, 214.514641)"><g><path d="M 8.867188 0 L 8.867188 -35.046875 L 2.5625 -35.046875 L 2.5625 0 Z M 8.867188 0 "/></g></g></g><g fill="#030009" fill-opacity="1"><g transform="translate(147.658573, 214.514641)"><g><path d="M 8.867188 0 L 8.867188 -26.273438 L 2.5625 -26.273438 L 2.5625 0 Z M 8.917969 -30.066406 L 8.917969 -36.375 L 2.609375 -36.375 L 2.609375 -30.066406 Z M 8.917969 -30.066406 "/></g></g></g><g fill="#030009" fill-opacity="1"><g transform="translate(159.040232, 214.514641)"><g><path d="M 13.609375 -20.535156 L 13.609375 -26.273438 L 9.816406 -26.273438 L 9.816406 -35.046875 L 3.507812 -35.046875 L 3.507812 -26.273438 L 0.425781 -26.273438 L 0.425781 -20.535156 L 3.507812 -20.535156 L 3.507812 0 L 9.816406 0 L 9.816406 -20.535156 Z M 13.609375 -20.535156 "/></g></g></g><g fill="#030009" fill-opacity="1"><g transform="translate(173.267304, 214.514641)"><g><path d="M 28.835938 -12.757812 C 28.835938 -20.914062 23.097656 -26.890625 15.269531 -26.890625 C 7.539062 -26.890625 1.421875 -20.773438 1.421875 -13.042969 C 1.421875 -5.359375 7.636719 0.617188 15.652344 0.617188 C 20.960938 0.617188 26.417969 -2.371094 28.171875 -7.777344 L 21.292969 -7.777344 C 19.683594 -5.878906 18.117188 -5.167969 15.507812 -5.167969 C 11.761719 -5.167969 9.011719 -7.160156 8.253906 -10.339844 L 28.597656 -10.339844 C 28.789062 -11.238281 28.835938 -11.808594 28.835938 -12.757812 Z M 22.621094 -15.886719 L 8.0625 -15.886719 C 9.058594 -19.253906 11.621094 -21.105469 15.367188 -21.105469 C 19.253906 -21.105469 21.816406 -19.253906 22.621094 -15.886719 Z M 22.621094 -15.886719 "/></g></g></g><g fill="#030009" fill-opacity="1"><g transform="translate(203.61839, 214.514641)"><g><path d="M 26.9375 0 L 17.453125 -12.945312 C 23.761719 -14.511719 26.605469 -18.355469 26.605469 -23.808594 C 26.605469 -27.363281 25.324219 -30.398438 22.90625 -32.4375 C 20.628906 -34.382812 18.117188 -35.046875 13.328125 -35.046875 L 3.226562 -35.046875 L 3.226562 0 L 9.722656 0 L 9.722656 -13.421875 L 18.921875 0 Z M 20.0625 -23.617188 C 20.0625 -19.917969 17.925781 -18.304688 12.898438 -18.304688 L 9.722656 -18.304688 L 9.722656 -28.835938 L 12.617188 -28.835938 C 18.78125 -28.835938 20.0625 -26.75 20.0625 -23.617188 Z M 20.0625 -23.617188 "/></g></g></g><g fill="#030009" fill-opacity="1"><g transform="translate(231.124063, 214.514641)"><g><path d="M 8.867188 0 L 8.867188 -26.273438 L 2.5625 -26.273438 L 2.5625 0 Z M 8.917969 -30.066406 L 8.917969 -36.375 L 2.609375 -36.375 L 2.609375 -30.066406 Z M 8.917969 -30.066406 "/></g></g></g><g fill="#030009" fill-opacity="1"><g transform="translate(242.505722, 214.514641)"><g><path d="M 29.070312 0 L 29.070312 -35.046875 L 22.765625 -35.046875 L 22.765625 -23.949219 C 20.914062 -25.988281 17.878906 -27.222656 14.558594 -27.222656 C 7.207031 -27.222656 1.421875 -21.058594 1.421875 -13.183594 C 1.421875 -5.40625 7.160156 0.617188 14.605469 0.617188 C 18.164062 0.617188 20.773438 -0.570312 23.285156 -3.414062 L 23.285156 0 Z M 23.238281 -13.277344 C 23.238281 -8.726562 19.871094 -5.167969 15.601562 -5.167969 C 11.191406 -5.167969 7.777344 -8.820312 7.777344 -13.46875 C 7.777344 -17.925781 11.144531 -21.4375 15.460938 -21.4375 C 19.871094 -21.4375 23.238281 -17.878906 23.238281 -13.277344 Z M 23.238281 -13.277344 "/></g></g></g><g fill="#030009" fill-opacity="1"><g transform="translate(273.80527, 214.514641)"><g><path d="M 28.835938 -12.757812 C 28.835938 -20.914062 23.097656 -26.890625 15.269531 -26.890625 C 7.539062 -26.890625 1.421875 -20.773438 1.421875 -13.042969 C 1.421875 -5.359375 7.636719 0.617188 15.652344 0.617188 C 20.960938 0.617188 26.417969 -2.371094 28.171875 -7.777344 L 21.292969 -7.777344 C 19.683594 -5.878906 18.117188 -5.167969 15.507812 -5.167969 C 11.761719 -5.167969 9.011719 -7.160156 8.253906 -10.339844 L 28.597656 -10.339844 C 28.789062 -11.238281 28.835938 -11.808594 28.835938 -12.757812 Z M 22.621094 -15.886719 L 8.0625 -15.886719 C 9.058594 -19.253906 11.621094 -21.105469 15.367188 -21.105469 C 19.253906 -21.105469 21.816406 -19.253906 22.621094 -15.886719 Z M 22.621094 -15.886719 "/></g></g></g><g fill="#000000" fill-opacity="1"><g transform="translate(114.14536, 229.69605)"><g><path d="M 4.90625 0 L 8.054688 -8.765625 L 6.886719 -8.765625 L 4.191406 -0.824219 L 1.589844 -8.765625 L 0.40625 -8.765625 L 3.429688 0 Z M 4.90625 0 "/></g></g></g><g fill="#000000" fill-opacity="1"><g transform="translate(122.339485, 229.69605)"><g><path d="M 2.363281 0 L 2.363281 -8.765625 L 1.269531 -8.765625 L 1.269531 0 Z M 2.363281 0 "/></g></g></g><g fill="#000000" fill-opacity="1"><g transform="translate(125.985641, 229.69605)"><g><path d="M 7.777344 -7.878906 L 7.777344 -8.765625 L 0.433594 -8.765625 L 0.433594 -7.878906 L 3.558594 -7.878906 L 3.558594 0 L 4.652344 0 L 4.652344 -7.878906 Z M 7.777344 -7.878906 "/></g></g></g><g fill="#000000" fill-opacity="1"><g transform="translate(134.052734, 229.69605)"><g/></g></g><g fill="#000000" fill-opacity="1"><g transform="translate(137.089112, 229.69605)"><g><path d="M 7.777344 -7.878906 L 7.777344 -8.765625 L 0.433594 -8.765625 L 0.433594 -7.878906 L 3.558594 -7.878906 L 3.558594 0 L 4.652344 0 L 4.652344 -7.878906 Z M 7.777344 -7.878906 "/></g></g></g><g fill="#000000" fill-opacity="1"><g transform="translate(145.156203, 229.69605)"><g><path d="M 3.582031 -6.886719 C 3.265625 -6.886719 2.921875 -6.773438 2.644531 -6.582031 L 2.03125 -5.679688 L 2.03125 -6.734375 L 0.941406 -6.734375 L 0.941406 0 L 2.03125 0 L 2.03125 -3.835938 C 2.03125 -5.375 2.898438 -6.046875 4.039062 -5.972656 L 4.039062 -6.796875 C 3.914062 -6.863281 3.761719 -6.886719 3.582031 -6.886719 Z M 3.582031 -6.886719 "/></g></g></g><g fill="#000000" fill-opacity="1"><g transform="translate(149.640819, 229.69605)"><g><path d="M 6.53125 -6.734375 L 5.4375 -6.734375 L 5.4375 -3.773438 C 5.4375 -1.472656 4.601562 -0.6875 3.546875 -0.6875 C 2.628906 -0.6875 2.082031 -1.207031 1.980469 -1.96875 C 1.945312 -2.3125 1.929688 -2.679688 1.929688 -2.898438 L 1.929688 -6.734375 L 0.839844 -6.734375 L 0.839844 -2.695312 C 0.839844 -2.148438 0.851562 -1.878906 0.902344 -1.539062 C 1.054688 -0.609375 1.867188 0.179688 3.265625 0.179688 C 3.953125 0.179688 4.445312 0.0625 5.019531 -0.355469 L 5.4375 -1.144531 L 5.4375 0 L 6.53125 0 Z M 6.53125 -6.734375 "/></g></g></g><g fill="#000000" fill-opacity="1"><g transform="translate(157.453835, 229.69605)"><g><path d="M 2.898438 -6.914062 C 1.511719 -6.914062 0.570312 -6.175781 0.570312 -4.941406 C 0.570312 -3.761719 1.539062 -3.265625 2.746094 -2.933594 C 3.875 -2.628906 4.332031 -2.289062 4.332031 -1.640625 C 4.332031 -0.992188 3.75 -0.660156 3.023438 -0.660156 C 2.25 -0.660156 1.625 -1.003906 1.449219 -1.980469 L 0.304688 -1.980469 C 0.507812 -0.457031 1.5625 0.179688 2.949219 0.179688 C 4.371094 0.179688 5.449219 -0.457031 5.449219 -1.726562 C 5.449219 -2.871094 4.714844 -3.480469 3.164062 -3.886719 C 2.25 -4.128906 1.691406 -4.394531 1.691406 -5.070312 C 1.691406 -5.65625 2.046875 -6.074219 2.808594 -6.074219 C 3.597656 -6.074219 4.078125 -5.601562 4.230469 -4.816406 L 5.375 -4.816406 C 5.234375 -6.046875 4.410156 -6.914062 2.898438 -6.914062 Z M 2.898438 -6.914062 "/></g></g></g><g fill="#000000" fill-opacity="1"><g transform="translate(163.577238, 229.69605)"><g><path d="M 2.25 -5.84375 L 3.507812 -5.84375 L 3.507812 -6.683594 L 2.25 -6.683594 L 2.25 -8.246094 L 1.15625 -8.246094 L 1.15625 -6.683594 L 0.253906 -6.683594 L 0.253906 -5.84375 L 1.15625 -5.84375 L 1.15625 -1.917969 C 1.15625 -1.539062 1.15625 -1.257812 1.167969 -1.078125 C 1.234375 -0.242188 1.664062 0.101562 2.503906 0.101562 C 2.808594 0.101562 3.113281 0.0898438 3.429688 0.0390625 L 3.429688 -0.761719 C 2.578125 -0.660156 2.3125 -0.800781 2.261719 -1.449219 C 2.25 -1.625 2.25 -1.742188 2.25 -1.96875 Z M 2.25 -5.84375 "/></g></g></g><g fill="#000000" fill-opacity="1"><g transform="translate(167.845883, 229.69605)"><g><path d="M 6.46875 -3.558594 C 6.46875 -5.527344 5.4375 -6.914062 3.582031 -6.914062 C 1.742188 -6.914062 0.382812 -5.527344 0.382812 -3.339844 C 0.382812 -0.964844 1.691406 0.179688 3.445312 0.179688 C 4.828125 0.179688 6.113281 -0.546875 6.378906 -2.171875 L 5.234375 -2.171875 C 5.082031 -1.207031 4.371094 -0.660156 3.496094 -0.660156 C 2.503906 -0.660156 1.664062 -1.257812 1.5625 -3.035156 L 6.441406 -3.035156 C 6.46875 -3.277344 6.46875 -3.457031 6.46875 -3.558594 Z M 3.558594 -6.074219 C 4.664062 -6.074219 5.261719 -5.273438 5.363281 -3.875 L 1.574219 -3.875 C 1.703125 -5.3125 2.492188 -6.074219 3.558594 -6.074219 Z M 3.558594 -6.074219 "/></g></g></g><g fill="#000000" fill-opacity="1"><g transform="translate(175.112629, 229.69605)"><g><path d="M 6.824219 -9.339844 L 5.730469 -9.339844 L 5.730469 -5.808594 L 5.285156 -6.46875 C 4.941406 -6.746094 4.230469 -6.914062 3.671875 -6.914062 C 1.929688 -6.914062 0.382812 -5.757812 0.382812 -3.265625 C 0.382812 -1.296875 1.472656 0.179688 3.445312 0.179688 C 4.128906 0.179688 4.839844 -0.0390625 5.222656 -0.355469 L 5.730469 -1.078125 L 5.730469 0 L 6.824219 0 Z M 3.609375 -0.660156 C 2.261719 -0.660156 1.574219 -1.867188 1.574219 -3.394531 C 1.574219 -5.160156 2.492188 -6.074219 3.671875 -6.074219 C 4.636719 -6.074219 5.730469 -5.414062 5.730469 -3.671875 L 5.730469 -3.304688 C 5.730469 -1.371094 4.726562 -0.660156 3.609375 -0.660156 Z M 3.609375 -0.660156 "/></g></g></g><g fill="#000000" fill-opacity="1"><g transform="translate(183.217835, 229.69605)"><g/></g></g><g fill="#000000" fill-opacity="1"><g transform="translate(186.254215, 229.69605)"><g><path d="M 4.738281 -8.945312 C 2.25 -8.945312 0.597656 -7.015625 0.597656 -4.34375 C 0.597656 -1.777344 2.019531 0.179688 4.574219 0.179688 C 6.886719 0.179688 8.070312 -1.207031 8.234375 -2.796875 L 8.246094 -2.921875 L 7.152344 -2.921875 L 7.128906 -2.796875 C 6.875 -1.539062 6.097656 -0.6875 4.636719 -0.6875 C 2.910156 -0.6875 1.816406 -2.234375 1.816406 -4.394531 C 1.816406 -6.519531 2.921875 -8.082031 4.714844 -8.082031 C 6.175781 -8.082031 6.949219 -7.230469 7.203125 -5.972656 L 7.230469 -5.84375 L 8.324219 -5.84375 L 8.308594 -5.972656 C 8.132812 -7.6875 6.964844 -8.945312 4.738281 -8.945312 Z M 4.738281 -8.945312 "/></g></g></g><g fill="#000000" fill-opacity="1"><g transform="translate(195.426541, 229.69605)"><g><path d="M 4.804688 0 L 5.894531 0 C 5.792969 -0.75 5.769531 -1.207031 5.769531 -1.714844 L 5.769531 -4.242188 C 5.769531 -4.535156 5.757812 -4.867188 5.730469 -5.132812 C 5.617188 -6.238281 4.941406 -6.914062 3.339844 -6.914062 C 1.855469 -6.914062 0.851562 -6.085938 0.75 -4.652344 L 1.894531 -4.652344 C 1.96875 -5.578125 2.425781 -6.074219 3.339844 -6.074219 C 4.242188 -6.074219 4.601562 -5.667969 4.652344 -5.042969 C 4.675781 -4.789062 4.675781 -4.523438 4.675781 -4.230469 L 4.675781 -4.054688 L 4.242188 -4.054688 C 1.601562 -4.054688 0.457031 -3.265625 0.457031 -1.742188 C 0.457031 -0.496094 1.410156 0.179688 2.628906 0.179688 C 3.277344 0.179688 3.863281 0.078125 4.320312 -0.242188 L 4.6875 -0.964844 Z M 3 -0.660156 C 2.171875 -0.660156 1.652344 -1.015625 1.652344 -1.828125 C 1.652344 -2.984375 2.820312 -3.378906 4.675781 -3.238281 L 4.675781 -2.554688 C 4.675781 -1.335938 4.015625 -0.660156 3 -0.660156 Z M 3 -0.660156 "/></g></g></g><g fill="#000000" fill-opacity="1"><g transform="translate(202.464611, 229.69605)"><g><path d="M 3.582031 -6.886719 C 3.265625 -6.886719 2.921875 -6.773438 2.644531 -6.582031 L 2.03125 -5.679688 L 2.03125 -6.734375 L 0.941406 -6.734375 L 0.941406 0 L 2.03125 0 L 2.03125 -3.835938 C 2.03125 -5.375 2.898438 -6.046875 4.039062 -5.972656 L 4.039062 -6.796875 C 3.914062 -6.863281 3.761719 -6.886719 3.582031 -6.886719 Z M 3.582031 -6.886719 "/></g></g></g><g fill="#000000" fill-opacity="1"><g transform="translate(206.949229, 229.69605)"><g><path d="M 4.320312 -6.914062 C 3.632812 -6.914062 2.921875 -6.695312 2.542969 -6.378906 L 2.03125 -5.65625 L 2.03125 -6.734375 L 0.941406 -6.734375 L 0.941406 2.492188 L 2.03125 2.492188 L 2.03125 -0.925781 L 2.476562 -0.265625 C 2.820312 0.0117188 3.53125 0.179688 4.089844 0.179688 C 5.832031 0.179688 7.382812 -0.976562 7.382812 -3.46875 C 7.382812 -5.4375 6.289062 -6.914062 4.320312 -6.914062 Z M 4.089844 -0.660156 C 3.125 -0.660156 2.03125 -1.320312 2.03125 -3.0625 L 2.03125 -3.429688 C 2.03125 -5.363281 3.035156 -6.074219 4.15625 -6.074219 C 5.5 -6.074219 6.1875 -4.867188 6.1875 -3.339844 C 6.1875 -1.574219 5.273438 -0.660156 4.089844 -0.660156 Z M 4.089844 -0.660156 "/></g></g></g><g fill="#000000" fill-opacity="1"><g transform="translate(215.003616, 229.69605)"><g><path d="M 3.722656 -6.914062 C 1.4375 -6.914062 0.382812 -5.273438 0.382812 -3.367188 C 0.382812 -1.472656 1.4375 0.179688 3.722656 0.179688 C 6.011719 0.179688 7.066406 -1.472656 7.066406 -3.367188 C 7.066406 -5.273438 6.011719 -6.914062 3.722656 -6.914062 Z M 3.722656 -0.660156 C 2.363281 -0.660156 1.574219 -1.792969 1.574219 -3.367188 C 1.574219 -4.957031 2.363281 -6.074219 3.722656 -6.074219 C 5.082031 -6.074219 5.871094 -4.957031 5.871094 -3.367188 C 5.871094 -1.792969 5.082031 -0.660156 3.722656 -0.660156 Z M 3.722656 -0.660156 "/></g></g></g><g fill="#000000" fill-opacity="1"><g transform="translate(222.740411, 229.69605)"><g><path d="M 3.722656 -6.914062 C 1.4375 -6.914062 0.382812 -5.273438 0.382812 -3.367188 C 0.382812 -1.472656 1.4375 0.179688 3.722656 0.179688 C 6.011719 0.179688 7.066406 -1.472656 7.066406 -3.367188 C 7.066406 -5.273438 6.011719 -6.914062 3.722656 -6.914062 Z M 3.722656 -0.660156 C 2.363281 -0.660156 1.574219 -1.792969 1.574219 -3.367188 C 1.574219 -4.957031 2.363281 -6.074219 3.722656 -6.074219 C 5.082031 -6.074219 5.871094 -4.957031 5.871094 -3.367188 C 5.871094 -1.792969 5.082031 -0.660156 3.722656 -0.660156 Z M 3.722656 -0.660156 "/></g></g></g><g fill="#000000" fill-opacity="1"><g transform="translate(230.477207, 229.69605)"><g><path d="M 1.980469 -9.339844 L 0.890625 -9.339844 L 0.890625 -1.894531 C 0.890625 -1.523438 0.890625 -1.234375 0.902344 -1.003906 C 0.941406 -0.152344 1.410156 0.0507812 2.046875 0.0507812 C 2.300781 0.0507812 2.578125 0.0390625 2.820312 0 L 2.820312 -0.789062 C 2.222656 -0.722656 2.019531 -0.863281 1.996094 -1.296875 C 1.980469 -1.511719 1.980469 -1.726562 1.980469 -1.929688 Z M 1.980469 -9.339844 "/></g></g></g><g fill="#000000" fill-opacity="1"><g transform="translate(233.907402, 229.69605)"><g/></g></g><g fill="#000000" fill-opacity="1"><g transform="translate(236.943783, 229.69605)"><g><path d="M 4.804688 0 L 5.894531 0 C 5.792969 -0.75 5.769531 -1.207031 5.769531 -1.714844 L 5.769531 -4.242188 C 5.769531 -4.535156 5.757812 -4.867188 5.730469 -5.132812 C 5.617188 -6.238281 4.941406 -6.914062 3.339844 -6.914062 C 1.855469 -6.914062 0.851562 -6.085938 0.75 -4.652344 L 1.894531 -4.652344 C 1.96875 -5.578125 2.425781 -6.074219 3.339844 -6.074219 C 4.242188 -6.074219 4.601562 -5.667969 4.652344 -5.042969 C 4.675781 -4.789062 4.675781 -4.523438 4.675781 -4.230469 L 4.675781 -4.054688 L 4.242188 -4.054688 C 1.601562 -4.054688 0.457031 -3.265625 0.457031 -1.742188 C 0.457031 -0.496094 1.410156 0.179688 2.628906 0.179688 C 3.277344 0.179688 3.863281 0.078125 4.320312 -0.242188 L 4.6875 -0.964844 Z M 3 -0.660156 C 2.171875 -0.660156 1.652344 -1.015625 1.652344 -1.828125 C 1.652344 -2.984375 2.820312 -3.378906 4.675781 -3.238281 L 4.675781 -2.554688 C 4.675781 -1.335938 4.015625 -0.660156 3 -0.660156 Z M 3 -0.660156 "/></g></g></g><g fill="#000000" fill-opacity="1"><g transform="translate(243.981858, 229.69605)"><g><path d="M 6.605469 -4.941406 C 6.503906 -6.125 5.679688 -6.914062 4.207031 -6.914062 C 3.519531 -6.914062 3.023438 -6.796875 2.453125 -6.351562 L 2.03125 -5.578125 L 2.03125 -6.734375 L 0.941406 -6.734375 L 0.941406 0 L 2.03125 0 L 2.03125 -2.960938 C 2.03125 -5.261719 2.921875 -6.046875 3.976562 -6.046875 C 5.019531 -6.046875 5.449219 -5.464844 5.515625 -4.675781 C 5.539062 -4.332031 5.539062 -4.054688 5.539062 -3.710938 L 5.539062 0 L 6.632812 0 L 6.632812 -3.785156 C 6.632812 -4.332031 6.632812 -4.601562 6.605469 -4.941406 Z M 6.605469 -4.941406 "/></g></g></g><g fill="#000000" fill-opacity="1"><g transform="translate(251.807574, 229.69605)"><g><path d="M 6.824219 -9.339844 L 5.730469 -9.339844 L 5.730469 -5.808594 L 5.285156 -6.46875 C 4.941406 -6.746094 4.230469 -6.914062 3.671875 -6.914062 C 1.929688 -6.914062 0.382812 -5.757812 0.382812 -3.265625 C 0.382812 -1.296875 1.472656 0.179688 3.445312 0.179688 C 4.128906 0.179688 4.839844 -0.0390625 5.222656 -0.355469 L 5.730469 -1.078125 L 5.730469 0 L 6.824219 0 Z M 3.609375 -0.660156 C 2.261719 -0.660156 1.574219 -1.867188 1.574219 -3.394531 C 1.574219 -5.160156 2.492188 -6.074219 3.671875 -6.074219 C 4.636719 -6.074219 5.730469 -5.414062 5.730469 -3.671875 L 5.730469 -3.304688 C 5.730469 -1.371094 4.726562 -0.660156 3.609375 -0.660156 Z M 3.609375 -0.660156 "/></g></g></g><g fill="#000000" fill-opacity="1"><g transform="translate(259.91278, 229.69605)"><g/></g></g><g fill="#000000" fill-opacity="1"><g transform="translate(262.949161, 229.69605)"><g><path d="M 7.039062 -2.300781 C 6.964844 -3.175781 6.621094 -3.976562 5.910156 -4.308594 C 6.722656 -4.5625 7.472656 -5.222656 7.472656 -6.378906 C 7.472656 -7.851562 6.554688 -8.550781 5.285156 -8.714844 C 4.890625 -8.765625 4.585938 -8.765625 4.140625 -8.765625 L 1.269531 -8.765625 L 1.269531 0 L 2.363281 0 L 2.363281 -3.773438 L 4.015625 -3.773438 C 4.21875 -3.773438 4.433594 -3.773438 4.636719 -3.761719 C 5.5 -3.699219 5.84375 -3.101562 5.945312 -2.199219 C 6.0625 -1.117188 6.175781 -0.558594 6.417969 0 L 7.625 0 C 7.269531 -0.46875 7.140625 -1.15625 7.039062 -2.300781 Z M 2.363281 -4.664062 L 2.363281 -7.878906 L 4.140625 -7.878906 C 4.535156 -7.878906 4.777344 -7.867188 5.019531 -7.828125 C 5.832031 -7.699219 6.300781 -7.253906 6.300781 -6.277344 C 6.300781 -5.285156 5.707031 -4.765625 4.890625 -4.6875 C 4.652344 -4.664062 4.433594 -4.664062 4.039062 -4.664062 Z M 2.363281 -4.664062 "/></g></g></g><g fill="#000000" fill-opacity="1"><g transform="translate(271.105175, 229.69605)"><g><path d="M 6.46875 -3.558594 C 6.46875 -5.527344 5.4375 -6.914062 3.582031 -6.914062 C 1.742188 -6.914062 0.382812 -5.527344 0.382812 -3.339844 C 0.382812 -0.964844 1.691406 0.179688 3.445312 0.179688 C 4.828125 0.179688 6.113281 -0.546875 6.378906 -2.171875 L 5.234375 -2.171875 C 5.082031 -1.207031 4.371094 -0.660156 3.496094 -0.660156 C 2.503906 -0.660156 1.664062 -1.257812 1.5625 -3.035156 L 6.441406 -3.035156 C 6.46875 -3.277344 6.46875 -3.457031 6.46875 -3.558594 Z M 3.558594 -6.074219 C 4.664062 -6.074219 5.261719 -5.273438 5.363281 -3.875 L 1.574219 -3.875 C 1.703125 -5.3125 2.492188 -6.074219 3.558594 -6.074219 Z M 3.558594 -6.074219 "/></g></g></g><g fill="#000000" fill-opacity="1"><g transform="translate(278.371922, 229.69605)"><g><path d="M 6.605469 -4.941406 C 6.503906 -6.125 5.679688 -6.914062 4.207031 -6.914062 C 3.519531 -6.914062 3.023438 -6.796875 2.453125 -6.351562 L 2.03125 -5.578125 L 2.03125 -6.734375 L 0.941406 -6.734375 L 0.941406 0 L 2.03125 0 L 2.03125 -2.960938 C 2.03125 -5.261719 2.921875 -6.046875 3.976562 -6.046875 C 5.019531 -6.046875 5.449219 -5.464844 5.515625 -4.675781 C 5.539062 -4.332031 5.539062 -4.054688 5.539062 -3.710938 L 5.539062 0 L 6.632812 0 L 6.632812 -3.785156 C 6.632812 -4.332031 6.632812 -4.601562 6.605469 -4.941406 Z M 6.605469 -4.941406 "/></g></g></g><g fill="#000000" fill-opacity="1"><g transform="translate(286.197638, 229.69605)"><g><path d="M 2.25 -5.84375 L 3.507812 -5.84375 L 3.507812 -6.683594 L 2.25 -6.683594 L 2.25 -8.246094 L 1.15625 -8.246094 L 1.15625 -6.683594 L 0.253906 -6.683594 L 0.253906 -5.84375 L 1.15625 -5.84375 L 1.15625 -1.917969 C 1.15625 -1.539062 1.15625 -1.257812 1.167969 -1.078125 C 1.234375 -0.242188 1.664062 0.101562 2.503906 0.101562 C 2.808594 0.101562 3.113281 0.0898438 3.429688 0.0390625 L 3.429688 -0.761719 C 2.578125 -0.660156 2.3125 -0.800781 2.261719 -1.449219 C 2.25 -1.625 2.25 -1.742188 2.25 -1.96875 Z M 2.25 -5.84375 "/></g></g></g><g fill="#000000" fill-opacity="1"><g transform="translate(290.466272, 229.69605)"><g><path d="M 4.804688 0 L 5.894531 0 C 5.792969 -0.75 5.769531 -1.207031 5.769531 -1.714844 L 5.769531 -4.242188 C 5.769531 -4.535156 5.757812 -4.867188 5.730469 -5.132812 C 5.617188 -6.238281 4.941406 -6.914062 3.339844 -6.914062 C 1.855469 -6.914062 0.851562 -6.085938 0.75 -4.652344 L 1.894531 -4.652344 C 1.96875 -5.578125 2.425781 -6.074219 3.339844 -6.074219 C 4.242188 -6.074219 4.601562 -5.667969 4.652344 -5.042969 C 4.675781 -4.789062 4.675781 -4.523438 4.675781 -4.230469 L 4.675781 -4.054688 L 4.242188 -4.054688 C 1.601562 -4.054688 0.457031 -3.265625 0.457031 -1.742188 C 0.457031 -0.496094 1.410156 0.179688 2.628906 0.179688 C 3.277344 0.179688 3.863281 0.078125 4.320312 -0.242188 L 4.6875 -0.964844 Z M 3 -0.660156 C 2.171875 -0.660156 1.652344 -1.015625 1.652344 -1.828125 C 1.652344 -2.984375 2.820312 -3.378906 4.675781 -3.238281 L 4.675781 -2.554688 C 4.675781 -1.335938 4.015625 -0.660156 3 -0.660156 Z M 3 -0.660156 "/></g></g></g><g fill="#000000" fill-opacity="1"><g transform="translate(297.504337, 229.69605)"><g><path d="M 1.980469 -9.339844 L 0.890625 -9.339844 L 0.890625 -1.894531 C 0.890625 -1.523438 0.890625 -1.234375 0.902344 -1.003906 C 0.941406 -0.152344 1.410156 0.0507812 2.046875 0.0507812 C 2.300781 0.0507812 2.578125 0.0390625 2.820312 0 L 2.820312 -0.789062 C 2.222656 -0.722656 2.019531 -0.863281 1.996094 -1.296875 C 1.980469 -1.511719 1.980469 -1.726562 1.980469 -1.929688 Z M 1.980469 -9.339844 "/></g></g></g><g fill="#000000" fill-opacity="1"><g transform="translate(300.934522, 229.69605)"><g><path d="M 2.898438 -6.914062 C 1.511719 -6.914062 0.570312 -6.175781 0.570312 -4.941406 C 0.570312 -3.761719 1.539062 -3.265625 2.746094 -2.933594 C 3.875 -2.628906 4.332031 -2.289062 4.332031 -1.640625 C 4.332031 -0.992188 3.75 -0.660156 3.023438 -0.660156 C 2.25 -0.660156 1.625 -1.003906 1.449219 -1.980469 L 0.304688 -1.980469 C 0.507812 -0.457031 1.5625 0.179688 2.949219 0.179688 C 4.371094 0.179688 5.449219 -0.457031 5.449219 -1.726562 C 5.449219 -2.871094 4.714844 -3.480469 3.164062 -3.886719 C 2.25 -4.128906 1.691406 -4.394531 1.691406 -5.070312 C 1.691406 -5.65625 2.046875 -6.074219 2.808594 -6.074219 C 3.597656 -6.074219 4.078125 -5.601562 4.230469 -4.816406 L 5.375 -4.816406 C 5.234375 -6.046875 4.410156 -6.914062 2.898438 -6.914062 Z M 2.898438 -6.914062 "/></g></g></g></svg>